<svg xmlns="http://www.w3.org/2000/svg" width="30" height="30" viewBox="0 0 30 30" fill="none">
  <path d="M30 15C30 23.2843 23.2843 30 15 30C6.71573 30 0 23.2843 0 15C0 6.71573 6.71573 0 15 0C23.2843 0 30 6.71573 30 15Z" fill="#FFC200"/>
  <path d="M8.33017 14.174L12.939 9.5652C13.1485 9.34472 13.4382 9.21816 13.7423 9.21424C14.0464 9.21032 14.3393 9.32932 14.5544 9.54428C14.7696 9.7593 14.8889 10.052 14.8852 10.3562C14.8816 10.6603 14.7553 10.9501 14.535 11.1598L11.8106 13.88H20.8714C21.2745 13.88 21.647 14.0951 21.8486 14.4442C22.0502 14.7933 22.0502 15.2235 21.8486 15.5726C21.647 15.9217 21.2745 16.1368 20.8714 16.1368H11.8358L14.535 18.8402C14.8081 19.1276 14.9104 19.5372 14.8044 19.9191C14.6984 20.3011 14.3998 20.5995 14.0177 20.7052C13.6356 20.8108 13.2261 20.7081 12.939 20.4348L8.33016 15.826C8.11774 15.6149 7.99875 15.3275 7.99976 15.028C7.99903 15.0187 7.99903 15.0093 7.99976 15C7.99907 14.9907 7.99907 14.9813 7.99976 14.972C7.99985 14.6727 8.11871 14.3857 8.33017 14.174Z" fill="black"/>
</svg>