<svg xmlns="http://www.w3.org/2000/svg" width="21" height="21" viewBox="0 0 21 21" fill="none">
  <path d="M10.5 5.24999e-05C7.71521 5.24999e-05 5.04454 1.10631 3.07527 3.07532C1.10617 5.04441 0 7.71526 0 10.5C0 13.2848 1.10626 15.9555 3.07527 17.9247C5.04436 19.8938 7.71521 21 10.5 21C12.3431 21 14.1538 20.5148 15.75 19.5933C17.3461 18.6717 18.6716 17.3461 19.5933 15.75C20.5148 14.1538 21 12.3431 21 10.5C21 7.71521 19.8937 5.04454 17.9247 3.07527C15.9556 1.10617 13.2848 0 10.5 0L10.5 5.24999e-05ZM15.75 10.521C15.7535 10.7493 15.6641 10.9691 15.5022 11.13L12.0456 14.5761C11.8321 14.7899 11.5208 14.8736 11.2289 14.7957C10.937 14.7178 10.7089 14.49 10.6304 14.1982C10.552 13.9065 10.6351 13.595 10.8486 13.3812L12.873 11.3547H6.09002C5.78993 11.3547 5.51259 11.1946 5.36255 10.9347C5.2125 10.6748 5.2125 10.3546 5.36255 10.0947C5.51259 9.8348 5.78993 9.67471 6.09002 9.67471H12.8919L10.8486 7.63142H10.8487C10.6348 7.41765 10.5513 7.10594 10.6296 6.81391C10.7078 6.52181 10.936 6.29363 11.2281 6.21535C11.5201 6.13715 11.8318 6.22062 12.0456 6.43445L15.5022 9.88054C15.6615 10.0389 15.7508 10.2544 15.75 10.479L15.75 10.521Z" fill="black"/>
</svg>