<?xml version="1.0" encoding="utf-8"?>
<!-- Generator: Adobe Illustrator 27.0.1, SVG Export Plug-In . SVG Version: 6.00 Build 0)  -->
<svg version="1.1" id="Layer_1" xmlns="http://www.w3.org/2000/svg" xmlns:xlink="http://www.w3.org/1999/xlink" x="0px" y="0px"
	 viewBox="0 0 30 30" style="enable-background:new 0 0 30 30;" xml:space="preserve">
<style type="text/css">
	.st0{fill:#FFC200;}
</style>
<path class="st0" d="M15,0c8.3,0,15,6.7,15,15c0,8.3-6.7,15-15,15C6.7,30,0,23.3,0,15C0,6.7,6.7,0,15,0z"/>
<path d="M14.2,21.7l-4.6-4.6c-0.2-0.2-0.3-0.5-0.4-0.8s0.1-0.6,0.3-0.8c0.2-0.2,0.5-0.3,0.8-0.3c0.3,0,0.6,0.1,0.8,0.4l2.7,2.7V9.1
	c0-0.4,0.2-0.8,0.6-1c0.3-0.2,0.8-0.2,1.1,0c0.3,0.2,0.6,0.6,0.6,1v9l2.7-2.7c0.3-0.3,0.7-0.4,1.1-0.3c0.4,0.1,0.7,0.4,0.8,0.8
	c0.1,0.4,0,0.8-0.3,1.1l-4.6,4.6C15.6,21.9,15.3,22,15,22c0,0,0,0,0,0c0,0,0,0,0,0C14.7,22,14.4,21.9,14.2,21.7z"/>
</svg>
